<svg xmlns="http://www.w3.org/2000/svg" width="256" height="256"><path fill-opacity=".016" d="M0 128.004v128.004l128.25-.254 128.25-.254.254-127.75L257.008 0H0v128.004m.485.496c0 70.4.119 99.053.265 63.672.146-35.38.146-92.98 0-128C.604 29.153.485 58.1.485 128.5" fill="#1976D2" fill-rule="evenodd"/><path fill-opacity=".263" d="M88.245 38.255C67.21 59.295 50 76.96 50 77.51c0 .55 17.551 18.546 39.002 39.992l39.001 38.992 39.245-39.246 39.246-39.245-38.992-39.001C146.056 17.551 128.055 0 127.5 0c-.555 0-18.22 17.215-39.255 38.255M95.5 46L63.512 78 95.5 110l31.988 32 31.756-31.744C176.71 92.797 191 78.056 191 77.5c0-.991-62.028-63.5-63.012-63.5-.275 0-14.894 14.4-32.488 32M98 77.5V107h13V84h10v23h13V84h11v23h12V48h-12v23h-11V47.905l-6.25.297-6.25.298-.283 11.25-.283 11.25H111V48H98v29.5m98.25 101.084l-3.25 1.422V238h9v-30.5c0-33.124.31-31.566-5.75-28.916M8 182v4h20v52h9v-51.928l9.75-.286 9.75-.286.31-3.75.311-3.75H8v4m52 .5v4.5h9v-9h-9v4.5m33.001 11.566c-1.375.58-3.513 2.006-4.75 3.168L86 199.349v-2.675c0-2.389-.372-2.674-3.5-2.674H79v44h8v-14.032c0-18.094 1.499-22.118 8.779-23.574 2.472-.494 3.601-.105 5.655 1.949 2.548 2.548 2.566 2.682 2.566 19.112V238h9v-15.05c0-16.781.814-19.802 5.902-21.909 3.836-1.589 8.153-.255 9.833 3.038.824 1.614 1.24 7.672 1.25 18.171L130 238h8v-17.032c0-18.53-.829-22.499-5.311-25.436-5.641-3.696-14.312-2.787-18.895 1.981l-2.294 2.388-3.075-2.977c-3.453-3.343-10.972-4.736-15.424-2.858m66.21.01c-4.535 1.381-10.511 7.646-11.985 12.564-1.697 5.663-1.534 15.687.327 20.142 1.806 4.323 5.8 8.797 9.647 10.807 4.311 2.252 14.572 1.795 19.203-.855 3.613-2.068 9.85-10.823 8.594-12.064-.273-.271-2.184-.807-4.247-1.192-3.129-.585-3.75-.421-3.75.988 0 .928-1.315 3.003-2.923 4.611-2.434 2.433-3.742 2.923-7.812 2.923-3.613 0-5.487-.558-7.187-2.142-2.191-2.041-5.078-7.628-5.078-9.826 0-.667 5.712-1.032 16.14-1.032h16.14l-.572-5.545c-.847-8.198-4.015-13.964-9.41-17.126-4.994-2.927-11.886-3.836-17.087-2.253m-98.497.543c-.393.393-.714 10.314-.714 22.048V238h9.039l-.269-21.75-.27-21.75-3.536-.298c-1.944-.163-3.857.024-4.25.417m146.989.076c-.266.443 3.242 10.255 7.794 21.805 8.088 20.519 8.245 21.079 6.852 24.463-2.187 5.314-4.22 7.037-8.303 7.037-3.559 0-3.635.08-3.246 3.417.451 3.857 2.817 5.01 8.11 3.951 5.726-1.145 8.186-5.548 18.417-32.956 5.32-14.252 9.673-26.502 9.673-27.223 0-.897-1.149-1.212-3.648-.999l-3.648.31-5.845 15.5c-3.215 8.525-5.968 15.858-6.118 16.297-.15.438-2.981-6.537-6.293-15.5l-6.02-16.297-3.621-.305c-1.992-.167-3.838.058-4.104.5m-46.487 6.81c-2.269.986-3.877 2.751-5.203 5.711l-1.92 4.284 11.086.284c6.097.156 11.296.074 11.553-.183 1.272-1.272-2.229-7.933-5.085-9.675-3.713-2.264-5.979-2.355-10.431-.421" fill="#1976D2" fill-rule="evenodd"/><path fill-opacity=".519" d="M88.502 38.998L49.51 78 88 116.5c21.17 21.175 38.945 38.5 39.5 38.5.555 0 18.331-17.326 39.502-38.502l38.492-38.501-39-39-39-39-38.992 39.001m6.742 6.258C78.06 62.447 64 76.962 64 77.512c0 .55 14.401 15.395 32.002 32.99l32.002 31.99 32.244-32.244 32.244-32.244-31.99-32.002C142.907 28.401 128.056 14 127.5 14c-.557 0-15.072 14.065-32.256 31.256M99 78v29h11V84h12v23.1l5.75-.3c4.256-.222 5.775-.69 5.848-1.8.053-.825.166-5.888.25-11.25L134 84h11v23h12V49h-12v23.1l-5.629-.3-5.629-.3.183-11.25.183-11.25H122v23.1l-5.75-.3-5.75-.3-.283-11.25-.283-11.25H99v29m98.25 100.584l-3.25 1.422V238h7v-30.5c0-16.775-.113-30.463-.25-30.418-.137.044-1.713.721-3.5 1.502M8 181.5v3.5h20v53H35.967l.266-26.25.267-26.25 9.75-.286 9.75-.286V178H8v3.5m53 1c0 4.476.019 4.5 3.5 4.5s3.5-.024 3.5-4.5-.019-4.5-3.5-4.5-3.5.024-3.5 4.5m29.973 13.146c-1.36.906-3.035 2.342-3.723 3.191-1.073 1.327-1.25 1.164-1.25-1.146 0-2.409-.367-2.691-3.5-2.691H79v43h8v-15.05c0-11.467.36-15.745 1.51-17.97 1.758-3.399 4.295-4.98 7.99-4.98 7.091 0 8.487 3.901 8.494 23.75L105 238h7l.006-13.25c.003-7.287.468-14.917 1.034-16.955 2.068-7.444 10.729-10.447 14.887-5.16 1.905 2.422 2.073 3.958 2.073 19V238h8l-.006-15.75c-.003-8.662-.466-17.409-1.029-19.436-1.566-5.64-5.996-8.815-12.292-8.81-5.422.004-11.203 2.608-12.335 5.557-.468 1.221-1.285.796-3.851-2.006-3.026-3.303-3.675-3.555-9.149-3.555-3.803 0-6.77.584-8.365 1.646m65.484.161c-7.444 4.676-11.223 13.477-10.17 23.682 1.142 11.07 7.47 18.218 16.999 19.201 9.096.939 16.03-2.469 19.713-9.689 1.713-3.357 1.76-3.88.391-4.405-2.734-1.049-6.39-.639-6.39.717 0 2.524-5.677 6.835-9.638 7.32-6.715.821-13.362-5.447-13.362-12.601 0-1.955.585-2.032 15.5-2.032H185l-.022-4.75c-.029-6.286-2.894-12.321-7.526-15.855-3.184-2.428-4.862-2.92-10.859-3.186-5.634-.249-7.719.08-10.136 1.598M61 216.5V238h7v-43h-7v21.5m147-20.758c0 .474 3.625 10.047 8.055 21.273l8.054 20.41-1.653 4.329c-1.972 5.165-5.37 7.735-9.015 6.821-2.413-.606-2.553-.441-2.257 2.639.292 3.039.612 3.31 4.249 3.607 5.134.42 8.203-1.326 11.051-6.284 1.274-2.22 6.148-14.387 10.829-27.037 4.682-12.65 8.837-23.818 9.233-24.818.633-1.597.248-1.78-3.163-1.5l-3.883.318-5.944 16.417c-3.27 9.03-6.085 16.005-6.257 15.5-.172-.504-2.943-7.892-6.158-16.417l-5.845-15.5-3.648-.31c-2.006-.171-3.648.077-3.648.552m-48.385 6.346c-2.608 2.052-5.615 6.797-5.615 8.862 0 .672 4.137 1.05 11.5 1.05H177v-2.6c0-1.624-1.277-3.877-3.4-6-4.143-4.143-9.72-4.666-13.985-1.312" fill="#1976D2" fill-rule="evenodd"/><path fill-opacity=".978" d="M8.999 181.75L9 185h20v51.781l3.5.409 3.5.408V185h20v-5.93l-23.501-.285-23.501-.285.001 3.25m187.751-2.588l-2.75 1.005V237h7v-29.5c0-16.225-.338-29.464-.75-29.421-.412.043-1.988.531-3.5 1.083M61 182.5c0 3.333.167 3.5 3.5 3.5s3.5-.167 3.5-3.5-.167-3.5-3.5-3.5-3.5.167-3.5 3.5m31.5 12.606c-1.1.639-3.224 2.298-4.72 3.686l-2.719 2.524.219-2.908c.198-2.613-.084-2.908-2.78-2.908h-3l-.27 20.75-.271 20.75H85.752l.435-14.75c.263-8.924.918-15.639 1.659-17 3.153-5.795 10.992-7.303 14.821-2.851 2.233 2.596 2.333 3.395 2.333 18.657V237h7v-14.266c0-16.538 1.219-20.403 7.047-22.346 4.782-1.595 8.149-.386 10.201 3.663 1.43 2.82 1.749 6.14 1.75 18.199L131 237h6v-17.05c0-13.284-.335-17.697-1.517-19.983-3.791-7.331-15.756-8.091-21.962-1.395l-2.402 2.592-2.892-3.236c-2.458-2.751-3.702-3.292-8.309-3.61-3.015-.208-6.305.142-7.418.788m64.921.79c-7.946 3.609-10.884 10.07-10.231 22.501.497 9.477 2.287 13.276 8.179 17.359 3.199 2.217 5.023 2.713 10.021 2.727 7.511.021 12.789-2.381 16.171-7.358 3.124-4.597 3.07-5.75-.309-6.598-2.08-.522-2.99-.254-3.75 1.103-.551.986-2.205 3.047-3.675 4.581-2.15 2.243-3.555 2.789-7.173 2.789-6.791 0-11.139-4.115-13.254-12.544l-.617-2.456h32.497l-.568-5.506c-1.516-14.689-14.332-22.483-27.291-16.598M61 216v21h7v-42h-7v21m147.295-19.75c10.879 26.737 15.727 40.595 15.208 43.471-.919 5.081-5.032 9.279-9.092 9.279-3.844 0-3.779-.097-2.387 3.563.936 2.461 1.375 2.647 5.078 2.15 4.491-.602 7.329-2.713 9.629-7.16.839-1.623 5.684-14.112 10.765-27.752L246.734 195h-3.295c-3.688 0-2.652-2.015-11.458 22.273-2.348 6.475-4.417 11.624-4.599 11.443-.181-.181-2.778-7.054-5.772-15.273s-5.754-15.73-6.134-16.693c-.474-1.202-1.786-1.75-4.19-1.75-2.405 0-3.341.391-2.991 1.25M164 199.662c-5.622 1.815-10 6.734-10 11.238 0 2.111.284 2.157 11.75 1.882l11.75-.282-.318-2.941c-.407-3.768-3.601-8.259-6.458-9.079-4.063-1.167-5.211-1.306-6.724-.818" fill="#1976D2" fill-rule="evenodd"/></svg>